<svg id="Слой_1" data-name="Слой 1" xmlns="http://www.w3.org/2000/svg" viewBox="0 0 1024 1024"><defs><style>.cls-1{fill:#fff;}</style></defs><title>Безымянный-2</title><path d="M144,603.45V418.55c17.47,5.65,18.71-7.31,22.38-18.16,35.57-105,104.36-180,206.14-223.51C559.35,97,779.34,189.56,853.28,378.27c3.85,9.82,7.69,19.75,10.14,30,2.05,8.51,6,12.19,14.63,10.79,1.55-.26,3.26.4,5.37.71V603.11l-16.6,3,.63,3.23h21.83V480.64H993.67c-12.81,17.29-24.76,33.29-36.57,49.4-6,8.21-16.31,16.58-16.38,25s10.12,16.81,16.08,25c11.79,16.25,23.76,32.37,37.26,50.71H981.78c-37.86,0-75.72.1-113.57-.11-5.81,0-8.82,1.35-11.12,7.36C810,761,722.5,840.2,594.12,869.14c-130.06,29.33-244.07-5.95-340-98.33-38.39-37-65.73-81.57-83.52-131.81-2.43-6.84-5.67-8.49-12.42-8.43-37.17.31-74.35.15-111.52.15H33.42C37.9,624.57,41.2,620,44.53,615.5c13.12-17.85,26-35.9,39.55-53.41,4.21-5.45,3.68-8.94-.2-14-14.68-19.24-28.95-38.79-43.34-58.25-2-2.65-3.74-5.42-6.34-9.21H137.75V609.31h22.52C157.46,605.08,157.46,605.08,144,603.45ZM835.77,406.6c3.8,9.92,7.41,15.6,15.91,10.58-44.63-159.94-204-279.54-392.47-250.89-86.63,13.17-158.43,54.15-215,121.23a337.06,337.06,0,0,0-68.81,130.87h659.2C834.89,415.53,835.16,412.81,835.77,406.6ZM174.64,604.33c32.72,137,166.12,262.55,341.3,261.16C698.57,864,824.1,729.71,852.44,604.76q-66.9-.21-133.56-.41-68.05-.11-136.1,0H174.64ZM419.78,500c7.39-11.5,8.45-18.84,4-27-5.36-9.92-14.53-11.26-24.5-10.81a57,57,0,0,1-8.16,0c-6.32-.64-8.27,2.24-8.19,8.31.26,18.36.09,36.72.09,55.09,0,22.83,0,22.83,22.59,22.6,15.36-.16,24.62-5.73,28.29-17C437.81,519.15,433.58,509.58,419.78,500Zm241.4,18.77c.45-17.94-11.82-31.09-27.73-31.25-16.17-.15-30.19,14.95-29.32,31.59s16.06,30.38,32.1,28.91c11.42-1,20.56-9.25,19.95-15.25-8.64,2.74-17.7,7.74-26.88,8-10.47.28-16.68-8.64-18.52-22Zm-172.3-30.42-4.23,0c0,12.72-.88,25.52.2,38.15,1.63,18.88,23.32,27.74,38.57,16.39,10.27-7.64,14.41-43.57,5-56.15-.51,4.59-1.08,7.69-1.15,10.8-.2,8.86.28,17.76-.41,26.58-.82,10.57-8.59,17.93-17.62,17.8-10.18-.14-18-7.09-18.92-17.75-.68-8.13-.19-16.35-.41-24.53C489.81,495.9,489.24,492.14,488.88,488.37ZM567.63,500c-1-3.94-2-8-3-12l-2.55.54v58.92l3.33.23c.94-11.29.41-23,3.22-33.78,3.1-12,12.32-19.65,25.79-21.47C587.62,485.64,584.31,486.74,567.63,500ZM457.11,547.21c6.66-9.91,5.65-79.23,0-85.41Z"/><path d="M513.73,618.44H319.31c-2.73,0-5.56.37-8.15-.25-1.41-.34-2.42-2.38-3.61-3.65,1.18-.94,2.25-2.44,3.57-2.71a36,36,0,0,1,7.13-.21H709.13c2,0,4.27-.46,6.09.19s3.12,2.43,4.65,3.71c-1.52,1-3,2.46-4.59,2.75-2.64.48-5.43.17-8.16.17Z"/><path d="M369.55,756l-7.39-2.84c2.64-1.08,4.27-2.29,4.86-1.9,7.41,4.76,15.29,9.12,21.48,15.18,1.35,1.32-3.45,8.92-4.88,12.34-3.25,7-4.36,15-8.72,17.67-8.59,5.21-15.61-2.36-23.24-7.18ZM356,789c7,3.15,13.33,10.31,19.79,2.79,7.33-8.53-2.35-12.63-8.63-18.5,7.71.59,16.13,7,18.27-3.59,1.7-8.4-6.18-9.61-12.36-12.24Z"/><path d="M641.38,760.3c10.87,10.23,12,26.48,23.52,35.3-3.28,2-7.82,5.37-12.85,7.68-7.27,3.35-13.19.78-17.49-5.76-5-7.68-4.32-16.06,2.13-21,2.62-2,5.76-3.37,9.16-5.3C644.29,767.39,642.83,763.84,641.38,760.3ZM646.56,772c-5,5.92-11.24,10.1-11.31,14.39-.08,4.88,4.84,10.36,8.75,14.48,1.08,1.14,7.9-.57,9.31-2.76C659.23,788.93,650.81,782.78,646.56,772Z"/><path d="M537.54,833.57v15l-2,.17c-1.67-14.31-3.35-28.63-5.18-44.27,6.91,0,14.47-.88,21.59.49,2.39.46,4.64,6.48,5.29,10.25C559.24,826.76,553.34,832.29,537.54,833.57Zm-.71-3.19c15-.3,21.34-8.06,15.88-18.73-1.63-3.17-7.25-7.2-9.53-6.43-3.35,1.14-6.76,6-7.57,9.76C534.62,819.64,536.27,824.86,536.83,830.38Z"/><path d="M606.24,820.25c-8.51-.28-15.21-8.32-14.64-17.55a15.37,15.37,0,0,1,15.76-14.17c8.35.29,15.24,8.57,14.7,17.65A15.31,15.31,0,0,1,606.24,820.25Zm12.5-15.68c-1.24-6.47-3.52-12.91-12.35-12.68-7.2.18-11.55,4.31-11.29,11.65.26,7.54,3.48,13.39,12.15,13.31C614.58,816.79,618.31,812.52,618.74,804.57Z"/><path d="M476.87,819.8c1.4,12.58,10.16,10.07,18.48,9-6.32,5.08-12.61,5.61-17.59,1.27-7.19-6.28-5.72-13.94-2.25-21.37,3.08-6.61,9.12-8.5,15.31-6,3,1.21,6,5.63,6.29,8.81.18,2.31-3.75,6.17-6.62,7.21C486.58,820.11,481.93,819.5,476.87,819.8Zm-.28-.84L494,811.74c-1.81-2.42-3.33-6.6-5.47-6.94C480.85,803.58,477.9,808.59,476.59,819Z"/><path d="M437.8,794.66l-5.9,28c-3.3-.78-9.33-2-15.24-3.67s-7.88-5.87-6.32-11.83c1.66-6.36,3.18-12.76,7.06-19-.84,5.06-1.45,10.17-2.56,15.18s-4.13,10.54,3,12.86,11.69-.94,13.54-8.29c1.19-4.7,2.89-9.27,4.36-13.9Z"/><path d="M393.18,811.73c-1.62-3.21-4.53-6.29-3.88-8.08A298.54,298.54,0,0,1,405,768C403.83,782.49,392.3,794.26,393.18,811.73Z"/><path d="M580.49,795.65c-16.85,8-2.14,21.59-6.59,33.34-2.71-10.9-4.92-19.79-7-28.24Z"/><path d="M449,825.55c1.37-8.64,2.75-17.27,4.06-25.49H467.8C449.36,800.66,456.76,818.05,449,825.55Z"/><path d="M389.6,542.25V504.71c12.06.8,24.87-4.22,35,6.67,5.68,6.09,6.32,13.67,2.12,20.79C418,547,403.41,540.61,389.6,542.25Z"/><path d="M389.39,498V468.16c10.13,0,21.22-4,27.93,6.31,2.69,4.15,3,12.56.54,16.83C411.53,502.31,400.11,497.64,389.39,498Z"/><path d="M654.84,513.05H612.68c-.07-10.22,7.82-18.12,18.94-19.17S651.83,500,654.84,513.05Z"/><path d="M834.56,409.18a4.32,4.32,0,0,1,1.49,2.14,1.5,1.5,0,0,0,2.9-.79,7.25,7.25,0,0,0-2.27-3.47,1.55,1.55,0,0,0-2.12,0,1.51,1.51,0,0,0,0,2.12Z"/><path class="cls-1" d="M834.25,407a9.31,9.31,0,0,0,2.2,4.27,1.51,1.51,0,0,0,2.12,0,1.54,1.54,0,0,0,0-2.12,6.28,6.28,0,0,1-1.43-2.94,1.5,1.5,0,1,0-2.89.79Z"/><path class="cls-1" d="M834.51,418.36h5.06a7.61,7.61,0,0,0,3.64-.49,1.47,1.47,0,0,0,.74-1.3c-.29-3.22-6-2.83-8.18-4l-.36,2.74c2.08-.8,5.69-1.82,4.33-4.75s-4.66-3.21-7.39-3.16a1.53,1.53,0,0,0-1.45,1.9c.3,1.67,1.49,2.41,2.91,3.15,1.24.63,2.93,1.71,4.36,1.76a1.51,1.51,0,0,0,1.44-1.1V413a1.57,1.57,0,0,0-1-1.85l-.05,0c-1.79-.73-2.56,2.17-.8,2.89l.06,0-1-1.84v.07l1.45-1.1c-.91,0-4.22-1.85-4.38-2.71l-1.44,1.9a10.42,10.42,0,0,1,2.73.16c.37.09,2.08.64,1.93,1.24l.69-.89a12.84,12.84,0,0,1-3.09,1.51,1.52,1.52,0,0,0-.36,2.74,13.26,13.26,0,0,0,3.55,1.29c1.21.27,2.86.38,3.87,1.15l-.74-1.3,0,.31.75-1.3c-.79.43-2.68.09-3.58.08h-3.61a1.5,1.5,0,0,0,0,3Z"/></svg>